<?xml version="1.0" encoding="UTF-8" standalone="no"?>
<!DOCTYPE svg PUBLIC "-//W3C//DTD SVG 1.1//EN" "http://www.w3.org/Graphics/SVG/1.1/DTD/svg11.dtd">
<svg width="100%" height="100%" viewBox="0 0 552 272" version="1.1" xmlns="http://www.w3.org/2000/svg" xmlns:xlink="http://www.w3.org/1999/xlink" xml:space="preserve" xmlns:serif="http://www.serif.com/" style="fill-rule:evenodd;clip-rule:evenodd;stroke-linejoin:round;stroke-miterlimit:2;">
    <g transform="matrix(1,0,0,1,-7840.93,-4288)">
        <g transform="matrix(1,0,0,2.41359,4430.75,1920)">
            <g id="dot-hash-combo" serif:id="dot hash combo" transform="matrix(1,0,0,1,61.1834,0)">
                <g id="dot-hash-color" serif:id="dot hash color" transform="matrix(1,0,0,0.716505,-520,845.214)">
                    <g transform="matrix(1.7,0,0,0.854807,-2489,-206.964)">
                        <path d="M3900,464L3900,648L3749.41,648C3746.92,648 3744.52,646.86 3742.76,644.83C3740.99,642.8 3740,640.047 3740,637.176C3740,604.557 3740,507.443 3740,474.824C3740,471.953 3740.99,469.2 3742.76,467.17C3744.52,465.14 3746.92,464 3749.41,464L3900,464Z" style="fill:rgb(51,46,86);"/>
                    </g>
                    <g transform="matrix(1,0,0,0.578252,359,-578.252)">
                        <g transform="matrix(1,0,0,1,89,40)">
                            <circle cx="3516" cy="1504" r="16" style="fill:rgb(48,198,255);"/>
                        </g>
                        <g transform="matrix(1,0,0,1,169,40)">
                            <circle cx="3516" cy="1504" r="16" style="fill:rgb(48,198,255);"/>
                        </g>
                        <g transform="matrix(6.12323e-17,1,-1,6.12323e-17,5069,-2092)">
                            <circle cx="3516" cy="1504" r="16" style="fill:rgb(48,198,255);"/>
                        </g>
                        <g transform="matrix(6.12323e-17,1,-1,6.12323e-17,5069,-2012)">
                            <circle cx="3516" cy="1504" r="16" style="fill:rgb(48,198,255);"/>
                        </g>
                        <g transform="matrix(1,0,0,1,89,0)">
                            <circle cx="3516" cy="1504" r="16" style="fill:rgb(48,198,255);"/>
                        </g>
                        <g transform="matrix(1,0,0,1,169,0)">
                            <circle cx="3516" cy="1504" r="16" style="fill:rgb(48,198,255);"/>
                        </g>
                        <g transform="matrix(6.12323e-17,1,-1,6.12323e-17,5109,-2092)">
                            <circle cx="3516" cy="1504" r="16" style="fill:rgb(48,198,255);"/>
                        </g>
                        <g transform="matrix(6.12323e-17,1,-1,6.12323e-17,5189,-2092)">
                            <circle cx="3516" cy="1504" r="16" style="fill:rgb(48,198,255);"/>
                        </g>
                        <g transform="matrix(1,0,0,1,89,-40)">
                            <circle cx="3516" cy="1504" r="16" style="fill:rgb(48,198,255);"/>
                        </g>
                        <g transform="matrix(1,0,0,1,169,-40)">
                            <circle cx="3516" cy="1504" r="16" style="fill:rgb(48,198,255);"/>
                        </g>
                        <g transform="matrix(6.12323e-17,1,-1,6.12323e-17,5149,-2092)">
                            <circle cx="3516" cy="1504" r="16" style="fill:rgb(48,198,255);"/>
                        </g>
                        <g transform="matrix(6.12323e-17,1,-1,6.12323e-17,5149,-2012)">
                            <circle cx="3516" cy="1504" r="16" style="fill:rgb(48,198,255);"/>
                        </g>
                        <g transform="matrix(1,0,0,1,89,-120)">
                            <circle cx="3516" cy="1504" r="16" style="fill:rgb(48,198,255);"/>
                        </g>
                        <g transform="matrix(1,0,0,1,169,-120)">
                            <circle cx="3516" cy="1504" r="16" style="fill:rgb(48,198,255);"/>
                        </g>
                        <g transform="matrix(6.12323e-17,1,-1,6.12323e-17,5229,-2092)">
                            <circle cx="3516" cy="1504" r="16" style="fill:rgb(48,198,255);"/>
                        </g>
                        <g transform="matrix(6.12323e-17,1,-1,6.12323e-17,5229,-2012)">
                            <circle cx="3516" cy="1504" r="16" style="fill:rgb(48,198,255);"/>
                        </g>
                    </g>
                </g>
                <g id="dot-hash-color1" serif:id="dot hash color" transform="matrix(1,0,0,0.716505,-240,845.214)">
                    <g transform="matrix(1.7,0,0,0.854807,-2489,-206.964)">
                        <path d="M3890.59,464C3893.08,464 3895.48,465.14 3897.24,467.17C3899.01,469.2 3900,471.953 3900,474.824L3900,637.176C3900,640.047 3899.01,642.8 3897.24,644.83C3895.48,646.86 3893.08,648 3890.59,648C3856.29,648 3740,648 3740,648L3740,464L3890.59,464Z" style="fill:rgb(48,198,255);"/>
                    </g>
                    <g transform="matrix(1,0,0,0.578252,359,-578.252)">
                        <g transform="matrix(1,0,0,1,89,40)">
                            <circle cx="3516" cy="1504" r="16" style="fill:rgb(51,46,86);"/>
                        </g>
                        <g transform="matrix(1,0,0,1,169,40)">
                            <circle cx="3516" cy="1504" r="16" style="fill:rgb(51,46,86);"/>
                        </g>
                        <g transform="matrix(6.12323e-17,1,-1,6.12323e-17,5069,-2092)">
                            <circle cx="3516" cy="1504" r="16" style="fill:rgb(51,46,86);"/>
                        </g>
                        <g transform="matrix(6.12323e-17,1,-1,6.12323e-17,5069,-1972)">
                            <circle cx="3516" cy="1504" r="16" style="fill:rgb(51,46,86);"/>
                        </g>
                        <g transform="matrix(1,0,0,1,129,-40)">
                            <circle cx="3516" cy="1504" r="16" style="fill:rgb(51,46,86);"/>
                        </g>
                        <g transform="matrix(6.12323e-17,1,-1,6.12323e-17,5229,-2052)">
                            <circle cx="3516" cy="1504" r="16" style="fill:rgb(51,46,86);"/>
                        </g>
                        <g transform="matrix(1,0,0,1,49,-40)">
                            <circle cx="3516" cy="1504" r="16" style="fill:rgb(51,46,86);"/>
                        </g>
                        <g transform="matrix(1,0,0,1,89,-40)">
                            <circle cx="3516" cy="1504" r="16" style="fill:rgb(51,46,86);"/>
                        </g>
                        <g transform="matrix(1,0,0,1,169,-40)">
                            <circle cx="3516" cy="1504" r="16" style="fill:rgb(51,46,86);"/>
                        </g>
                        <g transform="matrix(6.12323e-17,1,-1,6.12323e-17,5149,-2132)">
                            <circle cx="3516" cy="1504" r="16" style="fill:rgb(51,46,86);"/>
                        </g>
                        <g transform="matrix(6.12323e-17,1,-1,6.12323e-17,5189,-2132)">
                            <circle cx="3516" cy="1504" r="16" style="fill:rgb(51,46,86);"/>
                        </g>
                        <g transform="matrix(6.12323e-17,1,-1,6.12323e-17,5109,-2132)">
                            <circle cx="3516" cy="1504" r="16" style="fill:rgb(51,46,86);"/>
                        </g>
                        <g transform="matrix(6.12323e-17,1,-1,6.12323e-17,5149,-1972)">
                            <circle cx="3516" cy="1504" r="16" style="fill:rgb(51,46,86);"/>
                        </g>
                        <g transform="matrix(1,0,0,1,209,-120)">
                            <circle cx="3516" cy="1504" r="16" style="fill:rgb(51,46,86);"/>
                        </g>
                        <g transform="matrix(6.12323e-17,1,-1,6.12323e-17,5229,-2012)">
                            <circle cx="3516" cy="1504" r="16" style="fill:rgb(51,46,86);"/>
                        </g>
                    </g>
                </g>
            </g>
        </g>
    </g>
</svg>
